<svg width="720" height="1024" viewBox="0 0 720 1024" fill="none" xmlns="http://www.w3.org/2000/svg">
<rect width="720" height="1024" fill="#6172F3"/>
<circle cx="360" cy="512" r="303" fill="url(#paint0_radial_3_235)" fill-opacity="0.2"/>
<circle cx="360" cy="512" r="303" fill="url(#paint1_linear_3_235)" fill-opacity="0.2"/>
<circle cx="360" cy="511" r="264" fill="url(#paint2_radial_3_235)" fill-opacity="0.2"/>
<circle cx="360" cy="511" r="264" fill="url(#paint3_linear_3_235)" fill-opacity="0.2"/>
<g clip-path="url(#clip0_3_235)">
<path d="M653 478.552H652.01V451.39C652.01 449.326 651.604 447.282 650.816 445.374C650.027 443.467 648.871 441.734 647.414 440.274C645.957 438.815 644.227 437.657 642.324 436.867C640.42 436.077 638.379 435.67 636.319 435.67H578.879C576.818 435.67 574.778 436.077 572.874 436.867C570.97 437.657 569.24 438.815 567.783 440.274C566.326 441.734 565.17 443.467 564.382 445.374C563.593 447.282 563.187 449.326 563.187 451.39V600.401C563.187 602.465 563.593 604.509 564.382 606.417C565.17 608.324 566.326 610.057 567.783 611.517C569.24 612.976 570.97 614.134 572.874 614.924C574.778 615.714 576.818 616.121 578.879 616.121H636.319C638.379 616.121 640.42 615.714 642.324 614.924C644.227 614.134 645.957 612.976 647.414 611.517C648.871 610.057 650.027 608.324 650.816 606.417C651.604 604.509 652.01 602.465 652.01 600.401V497.886H653V478.552Z" fill="#3F3D56"/>
<path d="M648.671 452.314V601.108C648.671 604.222 647.436 607.208 645.238 609.41C643.041 611.612 640.06 612.849 636.951 612.849H579.235C577.697 612.849 576.173 612.545 574.751 611.955C573.33 611.365 572.038 610.5 570.95 609.409C569.862 608.319 569 607.025 568.411 605.6C567.823 604.176 567.52 602.649 567.521 601.108V452.314C567.521 449.201 568.755 446.216 570.952 444.015C573.149 441.814 576.128 440.578 579.235 440.578H586.237C585.894 441.425 585.763 442.343 585.857 443.252C585.951 444.162 586.266 445.034 586.775 445.793C587.284 446.551 587.971 447.173 588.776 447.603C589.581 448.033 590.48 448.259 591.392 448.26H624.299C625.213 448.262 626.113 448.038 626.919 447.608C627.726 447.179 628.414 446.557 628.924 445.797C629.433 445.038 629.748 444.164 629.841 443.254C629.933 442.344 629.8 441.425 629.454 440.578H636.951C640.059 440.578 643.039 441.814 645.237 444.015C647.435 446.216 648.67 449.201 648.671 452.314Z" fill="#D0CDE1"/>
<path d="M637.745 516.756H570.652V534.894H637.745V516.756Z" fill="#A4BCFD"/>
<path d="M640.407 531.693H575.444C575.02 531.693 574.614 531.524 574.315 531.224C574.015 530.924 573.847 530.517 573.846 530.093V514.089C573.847 513.665 574.015 513.258 574.315 512.958C574.614 512.658 575.02 512.489 575.444 512.489H640.407C640.831 512.489 641.237 512.658 641.536 512.958C641.836 513.258 642.004 513.665 642.005 514.089V530.093C642.004 530.517 641.836 530.924 641.536 531.224C641.237 531.524 640.831 531.693 640.407 531.693ZM575.444 513.556C575.303 513.556 575.167 513.612 575.068 513.712C574.968 513.812 574.912 513.948 574.911 514.089V530.093C574.912 530.234 574.968 530.37 575.068 530.47C575.167 530.57 575.303 530.626 575.444 530.626H640.407C640.548 530.626 640.684 530.57 640.784 530.47C640.883 530.37 640.939 530.234 640.94 530.093V514.089C640.939 513.948 640.883 513.812 640.784 513.712C640.684 513.612 640.548 513.556 640.407 513.556H575.444Z" fill="#3F3D56"/>
<path d="M586.626 526.892H578.106V527.959H586.626V526.892Z" fill="#3F3D56"/>
<path d="M598.341 526.892H589.821V527.959H598.341V526.892Z" fill="#3F3D56"/>
<path d="M610.055 526.892H601.536V527.959H610.055V526.892Z" fill="#3F3D56"/>
<path d="M621.77 526.892H613.25V527.959H621.77V526.892Z" fill="#3F3D56"/>
<path d="M633.485 526.892H624.965V527.959H633.485V526.892Z" fill="#3F3D56"/>
<path opacity="0.1" d="M648.671 585.979V601.108C648.671 604.222 647.436 607.208 645.238 609.41C643.041 611.612 640.06 612.849 636.951 612.849H579.235C577.697 612.849 576.173 612.545 574.751 611.955C573.33 611.365 572.038 610.5 570.95 609.409C569.862 608.319 569 607.025 568.411 605.6C567.823 604.176 567.52 602.649 567.521 601.108V531.512L648.671 585.979Z" fill="black"/>
<path d="M372.035 572.237H120.169V696H372.035V572.237Z" fill="#D0CDE1"/>
<path opacity="0.1" d="M308.003 696H121.234C120.952 695.999 120.682 695.886 120.482 695.687C120.283 695.487 120.17 695.216 120.169 694.933V573.303C120.17 573.021 120.283 572.75 120.482 572.55C120.682 572.35 120.952 572.237 121.234 572.237H123.599L308.003 696Z" fill="black"/>
<path d="M627.095 588.774H236.784V589.841H627.095V588.774Z" fill="#3F3D56"/>
<path d="M360.182 329.303H248.632V327H198.051V329.303H86.0412C85.0504 329.303 84.0692 329.499 83.1537 329.879C82.2382 330.259 81.4064 330.816 80.7058 331.517C80.0051 332.219 79.4493 333.053 79.0701 333.97C78.6909 334.887 78.4957 335.87 78.4957 336.863V489.89C78.4957 491.895 79.2907 493.817 80.7057 495.235C82.1208 496.653 84.04 497.449 86.0412 497.449H360.182C362.184 497.449 364.103 496.653 365.518 495.235C366.933 493.817 367.728 491.895 367.728 489.89V336.863C367.728 335.87 367.533 334.887 367.154 333.97C366.774 333.053 366.219 332.219 365.518 331.517C364.817 330.816 363.985 330.259 363.07 329.879C362.155 329.499 361.173 329.303 360.182 329.303Z" fill="#3F3D56"/>
<path d="M357.61 342.661H88.6142V494.687H357.61V342.661Z" fill="#D0CDE1"/>
<path d="M222.882 338.517C224.406 338.517 225.641 337.279 225.641 335.753C225.641 334.226 224.406 332.989 222.882 332.989C221.358 332.989 220.123 334.226 220.123 335.753C220.123 337.279 221.358 338.517 222.882 338.517Z" fill="#A4BCFD"/>
<path d="M168.625 399.395H162.236C161.812 399.394 161.406 399.225 161.107 398.925C160.807 398.625 160.639 398.218 160.638 397.794V391.393C160.639 390.968 160.807 390.562 161.107 390.261C161.406 389.961 161.812 389.793 162.236 389.792H168.625C169.049 389.793 169.455 389.961 169.755 390.261C170.054 390.562 170.222 390.968 170.223 391.393V397.794C170.222 398.218 170.054 398.625 169.755 398.925C169.455 399.225 169.049 399.394 168.625 399.395ZM162.236 390.859C162.094 390.859 161.959 390.916 161.859 391.016C161.759 391.116 161.703 391.251 161.703 391.393V397.794C161.703 397.936 161.759 398.071 161.859 398.171C161.959 398.271 162.094 398.327 162.236 398.328H168.625C168.767 398.327 168.902 398.271 169.002 398.171C169.102 398.071 169.158 397.936 169.158 397.794V391.393C169.158 391.251 169.102 391.116 169.002 391.016C168.902 390.916 168.767 390.859 168.625 390.859H162.236Z" fill="#3F3D56"/>
<path d="M282.577 398.328H161.171V399.395H282.577V398.328Z" fill="#3F3D56"/>
<path d="M279.382 427.668H251.161V436.204H279.382V427.668Z" fill="#A4BCFD"/>
<path d="M281.512 434.07H255.42C254.997 434.069 254.591 433.9 254.291 433.6C253.992 433.3 253.824 432.894 253.823 432.469V426.068C253.824 425.643 253.992 425.237 254.291 424.937C254.591 424.637 254.997 424.468 255.42 424.467H281.512C281.936 424.468 282.342 424.637 282.641 424.937C282.941 425.237 283.109 425.643 283.11 426.068V432.469C283.109 432.894 282.941 433.3 282.641 433.6C282.342 433.9 281.936 434.069 281.512 434.07ZM255.42 425.534C255.279 425.534 255.144 425.591 255.044 425.691C254.944 425.791 254.888 425.926 254.888 426.068V432.469C254.888 432.611 254.944 432.746 255.044 432.846C255.144 432.946 255.279 433.003 255.42 433.003H281.512C281.653 433.003 281.789 432.946 281.889 432.846C281.988 432.746 282.045 432.611 282.045 432.469V426.068C282.045 425.926 281.988 425.791 281.889 425.691C281.789 425.591 281.653 425.534 281.512 425.534H255.42Z" fill="#3F3D56"/>
<path d="M495.039 437.27H441.79V474.613H495.039V437.27Z" fill="#A4BCFD"/>
<path d="M500.364 471.679H449.245C448.68 471.678 448.139 471.453 447.74 471.053C447.34 470.653 447.116 470.111 447.115 469.545V434.336C447.116 433.771 447.34 433.228 447.74 432.828C448.139 432.428 448.68 432.203 449.245 432.203H500.364C500.928 432.203 501.47 432.428 501.869 432.828C502.268 433.228 502.493 433.771 502.494 434.336V469.545C502.493 470.111 502.268 470.653 501.869 471.053C501.47 471.453 500.928 471.678 500.364 471.679ZM449.245 434.336V469.545H500.365L500.364 434.336H449.245Z" fill="#3F3D56"/>
<path d="M494.506 433.003H492.376C492.376 428.334 490.525 423.856 487.23 420.555C483.934 417.253 479.465 415.398 474.804 415.398C470.144 415.398 465.674 417.253 462.379 420.555C459.084 423.856 457.232 428.334 457.232 433.003H455.102C455.102 427.768 457.178 422.747 460.873 419.046C464.568 415.344 469.579 413.265 474.804 413.265C480.03 413.265 485.041 415.344 488.736 419.046C492.431 422.747 494.506 427.768 494.506 433.003Z" fill="#3F3D56"/>
<path d="M480.129 447.673C480.13 446.744 479.889 445.831 479.43 445.024C478.97 444.217 478.309 443.544 477.51 443.072C476.711 442.6 475.804 442.345 474.876 442.333C473.949 442.32 473.035 442.55 472.224 443C471.413 443.45 470.733 444.105 470.252 444.899C469.771 445.693 469.505 446.6 469.481 447.528C469.457 448.457 469.675 449.376 470.114 450.194C470.554 451.012 471.199 451.701 471.985 452.193V457.919C471.985 458.289 472.058 458.657 472.2 458.999C472.342 459.342 472.549 459.653 472.811 459.916C473.073 460.178 473.383 460.386 473.725 460.528C474.067 460.67 474.434 460.743 474.804 460.743C475.552 460.743 476.269 460.445 476.798 459.916C477.326 459.386 477.623 458.668 477.623 457.919V452.193C478.39 451.715 479.022 451.049 479.46 450.258C479.899 449.467 480.129 448.578 480.129 447.673Z" fill="#3F3D56"/>
<path d="M226.933 627.183H218.413V628.25H226.933V627.183Z" fill="#3F3D56"/>
<path d="M238.647 627.183H230.127V628.25H238.647V627.183Z" fill="#3F3D56"/>
<path d="M250.362 627.183H241.842V628.25H250.362V627.183Z" fill="#3F3D56"/>
<path d="M262.077 627.183H253.557V628.25H262.077V627.183Z" fill="#3F3D56"/>
<path d="M273.791 627.183H265.271V628.25H273.791V627.183Z" fill="#3F3D56"/>
<path d="M383.217 686.931H133.481C132.917 686.931 132.375 686.706 131.976 686.306C131.577 685.905 131.352 685.363 131.352 684.797V563.168C131.352 562.602 131.577 562.06 131.976 561.66C132.375 561.26 132.917 561.035 133.481 561.034H383.217C383.781 561.034 384.323 561.259 384.722 561.66C385.121 562.06 385.346 562.602 385.347 563.168V684.797C385.346 685.363 385.121 685.906 384.722 686.306C384.323 686.706 383.781 686.931 383.217 686.931ZM133.481 563.168V684.797H383.218L383.217 563.168H133.481Z" fill="#3F3D56"/>
<path d="M144.664 581.305C146.428 581.305 147.859 579.872 147.859 578.105C147.859 576.337 146.428 574.904 144.664 574.904C142.899 574.904 141.469 576.337 141.469 578.105C141.469 579.872 142.899 581.305 144.664 581.305Z" fill="#3F3D56"/>
<path d="M155.846 581.305C157.61 581.305 159.041 579.872 159.041 578.105C159.041 576.337 157.61 574.904 155.846 574.904C154.081 574.904 152.651 576.337 152.651 578.105C152.651 579.872 154.081 581.305 155.846 581.305Z" fill="#3F3D56"/>
<path d="M167.028 581.305C168.792 581.305 170.223 579.872 170.223 578.105C170.223 576.337 168.792 574.904 167.028 574.904C165.263 574.904 163.833 576.337 163.833 578.105C163.833 579.872 165.263 581.305 167.028 581.305Z" fill="#3F3D56"/>
<path d="M282.045 634.652H210.159C209.736 634.651 209.33 634.482 209.03 634.182C208.731 633.882 208.562 633.476 208.562 633.051V614.914C208.562 614.489 208.731 614.082 209.03 613.782C209.33 613.482 209.736 613.314 210.159 613.313H282.045C282.468 613.314 282.874 613.482 283.174 613.782C283.473 614.082 283.642 614.489 283.642 614.914V633.051C283.642 633.476 283.473 633.882 283.174 634.182C282.874 634.482 282.468 634.651 282.045 634.652ZM210.159 614.38C210.018 614.38 209.883 614.437 209.783 614.537C209.683 614.637 209.627 614.772 209.627 614.914V633.051C209.627 633.193 209.683 633.328 209.783 633.428C209.883 633.528 210.018 633.585 210.159 633.585H282.045C282.186 633.585 282.321 633.528 282.421 633.428C282.521 633.328 282.577 633.193 282.577 633.051V614.914C282.577 614.772 282.521 614.637 282.421 614.537C282.321 614.437 282.186 614.38 282.045 614.38H210.159Z" fill="#3F3D56"/>
<path d="M300.149 635.185C305.443 635.185 309.734 630.886 309.734 625.583C309.734 620.28 305.443 615.981 300.149 615.981C294.856 615.981 290.564 620.28 290.564 625.583C290.564 630.886 294.856 635.185 300.149 635.185Z" fill="#A4BCFD"/>
<path d="M303.344 634.118C301.343 634.118 299.387 633.524 297.723 632.41C296.06 631.296 294.763 629.713 293.997 627.861C293.231 626.009 293.031 623.971 293.421 622.005C293.812 620.039 294.775 618.233 296.19 616.815C297.605 615.398 299.408 614.433 301.37 614.041C303.333 613.65 305.367 613.851 307.216 614.618C309.064 615.385 310.645 616.684 311.756 618.351C312.868 620.018 313.461 621.978 313.461 623.982C313.458 626.67 312.391 629.246 310.495 631.146C308.598 633.046 306.026 634.115 303.344 634.118ZM303.344 614.914C301.554 614.914 299.804 615.445 298.315 616.442C296.826 617.438 295.666 618.855 294.981 620.512C294.296 622.169 294.117 623.992 294.466 625.752C294.815 627.511 295.677 629.127 296.943 630.395C298.209 631.663 299.822 632.527 301.578 632.877C303.334 633.227 305.154 633.047 306.808 632.361C308.462 631.675 309.876 630.512 310.871 629.021C311.865 627.529 312.396 625.776 312.396 623.982C312.394 621.578 311.439 619.273 309.742 617.573C308.045 615.873 305.744 614.916 303.344 614.914Z" fill="#3F3D56"/>
<path d="M303.486 627.768L298.331 622.603L299.837 621.094L303.202 624.465L312.591 611.098L314.332 612.327L303.486 627.768Z" fill="#3F3D56"/>
<path opacity="0.1" d="M297.971 494.687H88.6141V354.178L297.971 494.687Z" fill="black"/>
<path d="M375.281 491.921H349.028V490.026C349.028 489.977 349.019 489.928 349 489.882C348.981 489.837 348.953 489.795 348.918 489.76C348.884 489.726 348.842 489.698 348.797 489.679C348.751 489.66 348.703 489.65 348.653 489.65H339.652C339.603 489.65 339.554 489.66 339.509 489.679C339.463 489.698 339.422 489.726 339.387 489.76C339.352 489.795 339.325 489.837 339.306 489.882C339.287 489.928 339.277 489.977 339.277 490.026V491.921H333.652V490.026C333.652 489.977 333.642 489.928 333.623 489.882C333.604 489.837 333.577 489.795 333.542 489.76C333.507 489.726 333.466 489.698 333.42 489.679C333.375 489.66 333.326 489.65 333.277 489.65H324.276C324.227 489.65 324.178 489.66 324.132 489.679C324.087 489.698 324.045 489.726 324.011 489.76C323.976 489.795 323.948 489.837 323.929 489.882C323.91 489.928 323.901 489.977 323.901 490.026V491.921H318.275V490.026C318.275 489.977 318.266 489.928 318.247 489.882C318.228 489.837 318.2 489.795 318.165 489.76C318.131 489.726 318.089 489.698 318.044 489.679C317.998 489.66 317.949 489.65 317.9 489.65H308.899C308.85 489.65 308.801 489.66 308.756 489.679C308.71 489.698 308.669 489.726 308.634 489.76C308.599 489.795 308.572 489.837 308.553 489.882C308.534 489.928 308.524 489.977 308.524 490.026V491.921H302.899V490.026C302.899 489.977 302.889 489.928 302.87 489.882C302.851 489.837 302.824 489.795 302.789 489.76C302.754 489.726 302.713 489.698 302.667 489.679C302.622 489.66 302.573 489.65 302.524 489.65H293.523C293.473 489.65 293.425 489.66 293.379 489.679C293.334 489.698 293.292 489.726 293.258 489.76C293.223 489.795 293.195 489.837 293.176 489.882C293.157 489.928 293.148 489.977 293.148 490.026V491.921H287.522V490.026C287.522 489.977 287.512 489.928 287.494 489.882C287.475 489.837 287.447 489.795 287.412 489.76C287.377 489.726 287.336 489.698 287.291 489.679C287.245 489.66 287.196 489.65 287.147 489.65H278.146C278.097 489.65 278.048 489.66 278.003 489.679C277.957 489.698 277.916 489.726 277.881 489.76C277.846 489.795 277.819 489.837 277.8 489.882C277.781 489.928 277.771 489.977 277.771 490.026V491.921H272.146V490.026C272.146 489.977 272.136 489.928 272.117 489.882C272.098 489.837 272.071 489.795 272.036 489.76C272.001 489.726 271.96 489.698 271.914 489.679C271.869 489.66 271.82 489.65 271.771 489.65H262.77C262.72 489.65 262.672 489.66 262.626 489.679C262.581 489.698 262.539 489.726 262.504 489.76C262.47 489.795 262.442 489.837 262.423 489.882C262.404 489.928 262.395 489.977 262.395 490.026V491.921H256.769V490.026C256.769 489.977 256.759 489.928 256.741 489.882C256.722 489.837 256.694 489.795 256.659 489.76C256.624 489.726 256.583 489.698 256.538 489.679C256.492 489.66 256.443 489.65 256.394 489.65H185.887C185.838 489.65 185.789 489.66 185.743 489.679C185.698 489.698 185.657 489.726 185.622 489.76C185.587 489.795 185.559 489.837 185.54 489.882C185.522 489.928 185.512 489.977 185.512 490.026V491.921H179.886V490.026C179.886 489.977 179.877 489.928 179.858 489.882C179.839 489.837 179.811 489.795 179.776 489.76C179.742 489.726 179.7 489.698 179.655 489.679C179.609 489.66 179.561 489.65 179.511 489.65H170.51C170.461 489.65 170.412 489.66 170.367 489.679C170.321 489.698 170.28 489.726 170.245 489.76C170.21 489.795 170.183 489.837 170.164 489.882C170.145 489.928 170.135 489.977 170.135 490.026V491.921H164.51V490.026C164.51 489.977 164.5 489.928 164.481 489.882C164.462 489.837 164.435 489.795 164.4 489.76C164.365 489.726 164.324 489.698 164.278 489.679C164.233 489.66 164.184 489.65 164.135 489.65H155.134C155.085 489.65 155.036 489.66 154.99 489.679C154.945 489.698 154.903 489.726 154.869 489.76C154.834 489.795 154.806 489.837 154.787 489.882C154.769 489.928 154.759 489.977 154.759 490.026V491.921H149.133V490.026C149.133 489.977 149.124 489.928 149.105 489.882C149.086 489.837 149.058 489.795 149.023 489.76C148.989 489.726 148.947 489.698 148.902 489.679C148.856 489.66 148.807 489.65 148.758 489.65H139.757C139.708 489.65 139.659 489.66 139.614 489.679C139.568 489.698 139.527 489.726 139.492 489.76C139.457 489.795 139.43 489.837 139.411 489.882C139.392 489.928 139.382 489.977 139.382 490.026V491.921H133.757V490.026C133.757 489.977 133.747 489.928 133.728 489.882C133.709 489.837 133.682 489.795 133.647 489.76C133.612 489.726 133.571 489.698 133.525 489.679C133.48 489.66 133.431 489.65 133.382 489.65H124.381C124.331 489.65 124.283 489.66 124.237 489.679C124.192 489.698 124.15 489.726 124.116 489.76C124.081 489.795 124.053 489.837 124.034 489.882C124.015 489.928 124.006 489.977 124.006 490.026V491.921H118.38V490.026C118.38 489.977 118.37 489.928 118.352 489.882C118.333 489.837 118.305 489.795 118.27 489.76C118.236 489.726 118.194 489.698 118.149 489.679C118.103 489.66 118.054 489.65 118.005 489.65H109.004C108.955 489.65 108.906 489.66 108.861 489.679C108.815 489.698 108.774 489.726 108.739 489.76C108.704 489.795 108.677 489.837 108.658 489.882C108.639 489.928 108.629 489.977 108.629 490.026V491.921H103.004V490.026C103.004 489.977 102.994 489.928 102.975 489.882C102.956 489.837 102.929 489.795 102.894 489.76C102.859 489.726 102.818 489.698 102.772 489.679C102.727 489.66 102.678 489.65 102.629 489.65H93.6277C93.5784 489.65 93.5297 489.66 93.4841 489.679C93.4386 489.698 93.3973 489.726 93.3625 489.76C93.3277 489.795 93.3 489.837 93.2812 489.882C93.2623 489.928 93.2526 489.977 93.2526 490.026V491.921H76.0009C74.8189 491.921 73.6484 492.154 72.5564 492.607C71.4644 493.061 70.4721 493.725 69.6363 494.562C68.8005 495.4 68.1375 496.394 67.6852 497.488C67.2328 498.582 67 499.754 67 500.938V505.016C67 507.408 67.9483 509.701 69.6363 511.392C71.3243 513.083 73.6137 514.033 76.0009 514.033H375.281C376.463 514.033 377.633 513.8 378.725 513.347C379.817 512.894 380.81 512.23 381.646 511.392C382.481 510.555 383.144 509.561 383.597 508.467C384.049 507.373 384.282 506.2 384.282 505.016V500.938C384.282 499.754 384.049 498.582 383.597 497.488C383.144 496.394 382.481 495.4 381.646 494.562C380.81 493.725 379.817 493.061 378.725 492.607C377.633 492.154 376.463 491.921 375.281 491.921Z" fill="#3F3D56"/>
<path d="M293.227 443.139H152.651C152.227 443.138 151.821 442.969 151.522 442.669C151.222 442.369 151.054 441.962 151.053 441.538V382.857C151.054 382.433 151.222 382.026 151.522 381.726C151.821 381.426 152.227 381.257 152.651 381.257H293.227C293.65 381.257 294.057 381.426 294.356 381.726C294.655 382.026 294.824 382.433 294.824 382.857V441.538C294.824 441.962 294.655 442.369 294.356 442.669C294.057 442.969 293.65 443.138 293.227 443.139ZM152.651 382.324C152.51 382.324 152.374 382.38 152.275 382.48C152.175 382.58 152.119 382.716 152.118 382.857V441.538C152.119 441.68 152.175 441.815 152.275 441.915C152.374 442.015 152.51 442.071 152.651 442.072H293.227C293.368 442.071 293.503 442.015 293.603 441.915C293.703 441.815 293.759 441.68 293.759 441.538V382.857C293.759 382.716 293.703 382.58 293.603 382.48C293.503 382.38 293.368 382.324 293.227 382.324H152.651Z" fill="#3F3D56"/>
<path d="M168.625 415.398H162.236C161.812 415.398 161.406 415.229 161.107 414.929C160.807 414.629 160.639 414.222 160.638 413.798V407.397C160.639 406.972 160.807 406.565 161.107 406.265C161.406 405.965 161.812 405.797 162.236 405.796H168.625C169.049 405.797 169.455 405.965 169.755 406.265C170.054 406.565 170.222 406.972 170.223 407.397V413.798C170.222 414.222 170.054 414.629 169.755 414.929C169.455 415.229 169.049 415.398 168.625 415.398ZM162.236 406.863C162.094 406.863 161.959 406.92 161.859 407.02C161.759 407.12 161.703 407.255 161.703 407.397V413.798C161.703 413.94 161.759 414.075 161.859 414.175C161.959 414.275 162.094 414.331 162.236 414.332H168.625C168.767 414.331 168.902 414.275 169.002 414.175C169.102 414.075 169.158 413.94 169.158 413.798V407.397C169.158 407.255 169.102 407.12 169.002 407.02C168.902 406.92 168.767 406.863 168.625 406.863H162.236Z" fill="#3F3D56"/>
<path d="M282.577 414.332H161.171V415.398H282.577V414.332Z" fill="#3F3D56"/>
<path d="M598.341 470.879H208.029V471.946H598.341V470.879Z" fill="#3F3D56"/>
<path d="M208.029 478.347C212.146 478.347 215.484 475.003 215.484 470.879C215.484 466.754 212.146 463.41 208.029 463.41C203.912 463.41 200.575 466.754 200.575 470.879C200.575 475.003 203.912 478.347 208.029 478.347Z" fill="#3F3D56"/>
<path d="M598.341 477.814C601.576 477.814 604.198 475.186 604.198 471.946C604.198 468.705 601.576 466.077 598.341 466.077C595.106 466.077 592.483 468.705 592.483 471.946C592.483 475.186 595.106 477.814 598.341 477.814Z" fill="#3F3D56"/>
<path d="M627.095 595.709C630.33 595.709 632.952 593.082 632.952 589.841C632.952 586.6 630.33 583.973 627.095 583.973C623.86 583.973 621.238 586.6 621.238 589.841C621.238 593.082 623.86 595.709 627.095 595.709Z" fill="#3F3D56"/>
<path d="M238.381 595.709C241.616 595.709 244.238 593.082 244.238 589.841C244.238 586.6 241.616 583.973 238.381 583.973C235.146 583.973 232.524 586.6 232.524 589.841C232.524 593.082 235.146 595.709 238.381 595.709Z" fill="#3F3D56"/>
</g>
<defs>
<radialGradient id="paint0_radial_3_235" cx="0" cy="0" r="1" gradientUnits="userSpaceOnUse" gradientTransform="translate(360 512) rotate(90) scale(303)">
<stop stop-color="#444CE7" stop-opacity="0.81"/>
<stop offset="1" stop-color="#444CE7" stop-opacity="0.29"/>
</radialGradient>
<linearGradient id="paint1_linear_3_235" x1="232.047" y1="209" x2="417.757" y2="806.559" gradientUnits="userSpaceOnUse">
<stop stop-color="#444CE7" stop-opacity="0.81"/>
<stop offset="1" stop-opacity="0"/>
</linearGradient>
<radialGradient id="paint2_radial_3_235" cx="0" cy="0" r="1" gradientUnits="userSpaceOnUse" gradientTransform="translate(360 511) rotate(90) scale(264)">
<stop stop-color="#444CE7" stop-opacity="0.81"/>
<stop offset="1" stop-color="#444CE7" stop-opacity="0.29"/>
</radialGradient>
<linearGradient id="paint3_linear_3_235" x1="360" y1="247" x2="413.333" y2="745.667" gradientUnits="userSpaceOnUse">
<stop stop-color="#A4BCFD"/>
<stop offset="1" stop-color="#444CE7" stop-opacity="0.81"/>
</linearGradient>
<clipPath id="clip0_3_235">
<rect width="586" height="369" fill="white" transform="translate(67 327)"/>
</clipPath>
</defs>
</svg>
